<?xml version="1.0" encoding="utf-8"?>
<!-- Generator: Adobe Illustrator 19.2.1, SVG Export Plug-In . SVG Version: 6.00 Build 0)  -->
<svg version="1.1" xmlns="http://www.w3.org/2000/svg" xmlns:xlink="http://www.w3.org/1999/xlink" x="0px" y="0px" width="512px"
	 height="512px" viewBox="0 0 512 512" style="enable-background:new 0 0 512 512;" xml:space="preserve">
<style type="text/css">
	.st0{fill:#999999;}
	.st1{fill:#FDE9EE;}
	.st2{fill:#FFFFFF;}
	.st3{fill:#E32529;}
</style>
<g id="Layer_3">
	<path class="st0" d="M496,512H16c-8.8,0-16-7.2-16-16V16C0,7.2,7.2,0,16,0h480c8.8,0,16,7.2,16,16v480C512,504.8,504.8,512,496,512
		z"/>
</g>
<g id="Layer_1">
</g>
<g id="Layer_2">
	<g>
		<path class="st1" d="M225.5,43.3c-3.5-12.6-12-18.9-19.3-18c-8.7,1.1-18,6.3-21.7,14.5c-10.4,23.4,11.3,92.1,14.6,103.6
			c-21.1,63.8-93.4,189.8-128.8,198.3c-0.7-8.3,3.7-32.4,50.4-62.5c2.4-2.6,5.2-5.7,6.5-7.8c-39.5,19.3-90.6,50.2-59.9,73.4
			c1.7,1.3,4.3,2.4,7.2,3.5c23.5,8.7,56.5-19.8,89.7-84.5c36.5-12,66-21.1,107.7-27.4c45.6,31,76.2,37.3,96.9,29.3
			c5.7-2.2,14.8-9.5,17.4-18.9c-16.9,20.8-56.3,6.3-87.9-13.5c29.1-3.2,59.1-5,72.1-0.9c16.5,5.2,15.9,13.3,15.8,14.5
			c1.3-4.4,3.2-11.7-0.4-17.4c-13.9-22.6-77.7-9.5-100.8-7c-36.5-22.1-61.7-61.4-71.9-89.7C222.7,96.1,232.9,69.6,225.5,43.3
			 M209.8,119.8c-6.1-21.7-14.6-69.9-0.9-85.4C235.7,49.7,219,86.3,209.8,119.8 M260,227.3c-35.2,6.5-59.1,15.6-93.4,29.1
			c10.2-19.8,29.5-70.4,38.7-103.8C218.3,178.6,234,204,260,227.3"/>
		<path class="st2" d="M270.1,211.7"/>
		<g>
			<path class="st3" d="M202.3,43.2c90-0.2,163.8,66.8,172.4,153.6c3.4,34.7-3,67.1-19.1,97.5c-4.4,8.2-2.8,12.9,3.5,18.9
				c35.5,33.9,70.6,68.2,105.9,102.2c11.9,11.5,16.2,25.3,12.4,41.2c-6.6,27.6-39,39.2-62,22.3c-5.1-3.8-9.7-8.4-14.3-12.9
				c-33.3-32.4-66.7-64.8-99.9-97.4c-5.6-5.6-10.1-6.5-17.5-2.8c-109,54.9-234.3-12.4-249.2-133.6C23.1,140.1,94.9,52,187.5,44.4
				C193.3,44,199,43.5,202.3,43.2z M205.3,111.5c-57.2-0.1-103.7,46-103.8,102.9c0,56.1,46.6,102.5,103.3,102.6
				c56.7,0.2,102.7-45.7,102.9-102.7C307.8,157.5,262.2,111.7,205.3,111.5z"/>
		</g>
		<path class="st2" d="M298.6,233.2c0.2,0,0.5-0.1,0.7-0.1c-2.1-1.2-4-2.7-5.7-4.4c-4.3-2.7-8.4-5.7-12.3-9
			c-34.4-22.4-58.1-59.9-67.9-87.2l-3.5-12.8c0,0,0,0,0,0c-6.1-21.7-14.6-69.9-0.9-85.5c0.1,0.1,0.2,0.1,0.3,0.2v-9.3
			c-1-0.1-2-0.1-2.9,0c-8.7,1.1-18,6.3-21.7,14.5c-10.4,23.4,11.3,92.1,14.6,103.6c-21.1,63.8-93.4,189.8-128.8,198.3
			c0-0.3,0-0.6-0.1-0.9c-1,1.4-2,2.6-3.2,3.8c0.1,0.1,0.2,0.1,0.3,0.2c1.7,1.3,4.3,2.4,7.2,3.5c23.5,8.7,56.5-19.8,89.7-84.5
			c36.5-12,66-21.1,107.7-27.4c45.6,31,76.2,37.3,96.9,29.3c5.7-2.2,14.8-9.5,17.4-18.9C369.5,267.5,330.1,253.1,298.6,233.2z
			 M166.6,256.4c10.2-19.8,29.5-70.4,38.7-103.8c13,26,28.7,51.3,54.7,74.7C224.8,233.8,200.9,242.9,166.6,256.4z"/>
	</g>
</g>
</svg>
